<svg xmlns="http://www.w3.org/2000/svg"  viewBox="0 0 48 48" width="48px" height="48px"><path fill="#d6e5e5" d="M43.17,41.328c-3.2,0.08-6.48,0.13-9.79,0.15c-1.03-2.61-1.61-4.56-2.88-7.75	c-0.84-2.1-2.47-5.05-3.23-6.93c-1.35-3.34-2.77-6.38-3.17-7.34c-0.51,1.19-0.92,2.66-1.44,3.82c-0.44,1-1.03,2.38-1.48,3.37	c-0.83,1.87-1.32,2.66-2.11,4.57c-0.32,0.79-1.15,2.28-1.46,3.09c0.81,0.04,1.48,0.1,3.26,0.11c0.23,0,1.55-0.08,2.29-0.08	c0.82,0,0.82-0.06,1.24-0.06c0.77,2.49,1.87,3.68,2.96,7.2c-7.52-0.02-15.11-0.16-22.33-0.33c0.71-1.73,2.76-6.39,4.5-10.72	c1.85-4.63,2.67-6.45,3.19-7.88c0.45-1.26,1.7-4.01,2.15-5.27c1.33-3.69,2.61-7.03,4.2-10.61h10.78c0.53,2.23,1.43,4.72,2.18,6.52	c1.37,3.28,2.01,5.64,3.13,8.36c0.35,0.85,1.02,2.8,1.38,3.64c1.11,2.55,1.64,3.64,2.54,6.27c0.59,1.74,1.05,2.74,1.73,4.45	C41.26,37.028,42.72,40.208,43.17,41.328z"/><path fill="#ed2224" d="M33.38,41.478c-2,0.01-4,0.01-6.02,0c-1.09-3.52-2.19-4.71-2.96-7.2c-0.42,0-0.42,0.06-1.24,0.06	c-0.74,0-2.06,0.08-2.29,0.08c-1.78-0.01-2.45-0.07-3.26-0.11c0.31-0.81,1.14-2.3,1.46-3.09c0.79-1.91,1.28-2.7,2.11-4.57	c0.45-0.99,1.04-2.37,1.48-3.37c0.52-1.16,0.93-2.63,1.44-3.82c0.4,0.96,1.82,4,3.17,7.34c0.76,1.88,2.39,4.83,3.23,6.93	C31.77,36.918,32.35,38.868,33.38,41.478z"/><path fill="#ed2224" d="M43.17,41.328c-0.45-1.12-1.91-4.3-2.36-5.42c-0.68-1.71-1.14-2.71-1.73-4.45	c-0.9-2.63-1.43-3.72-2.54-6.27c-0.36-0.84-1.03-2.79-1.38-3.64c-1.12-2.72-1.76-5.08-3.13-8.36c-0.75-1.8-1.65-4.29-2.18-6.52h5.17	c1.52,0,6.16-0.25,7.66-0.05c-0.13,6.95,0.22,11.14,0.06,18.18c-0.04,1.43,0.19,4.3,0.17,5.72	C42.86,34.028,43.27,38.078,43.17,41.328z"/><path fill="#ed2224" d="M19.07,6.668c-1.59,3.58-2.87,6.92-4.2,10.61c-0.45,1.26-1.7,4.01-2.15,5.27	c-0.52,1.43-1.34,3.25-3.19,7.88c-1.74,4.33-3.79,8.99-4.5,10.72c0.18-2.35,0.29-5.06,0.23-7.39c-0.24-8.39,0.72-15.98,0.13-24.36	c-0.07-0.99-0.02-2.68-0.02-2.68s2.58-0.04,3.98-0.05C9.35,6.668,19.07,6.668,19.07,6.668z"/><path d="M43.667,41.296c0.07-2.406-0.095-4.811-0.19-7.214c-0.083-2.11-0.052-4.22-0.151-6.33c-0.101-2.151-0.047-4.289-0.042-6.442	c0.005-2.241-0.039-4.481-0.079-6.721c-0.047-2.656-0.069-5.311-0.02-7.967c0.005-0.295-0.236-0.466-0.5-0.5	c-1.551-0.199-3.166-0.077-4.724-0.032c-1.867,0.054-3.729,0.076-5.597,0.077c-2.48,0.001-6.603,0-9.796-0.001	c-2.495-0.001-4.423-0.001-4.555-0.001c-2.886,0-5.771,0-8.657,0.001C8.027,6.174,6.699,6.197,5.37,6.223	c-0.276,0.005-0.492,0.225-0.5,0.5c-0.047,1.671,0.081,3.325,0.146,4.994c0.095,2.422,0.079,4.846,0.017,7.268	c-0.122,4.801-0.403,9.6-0.285,14.404c0.063,2.571-0.023,5.137-0.219,7.701c-0.051,0.214,0.053,0.373,0.221,0.454	c0.084,0.056,0.179,0.097,0.276,0.1c9.921,0.234,19.845,0.406,29.769,0.324c2.791-0.023,5.581-0.068,8.37-0.139	c0.107-0.003,0.199-0.044,0.279-0.1C43.605,41.649,43.704,41.498,43.667,41.296z M37.247,7.111c1.623-0.05,3.304-0.173,4.933-0.029	c-0.065,4.456,0.09,8.908,0.102,13.363c0.006,2.192-0.089,4.383,0.008,6.574c0.092,2.053,0.088,4.102,0.153,6.155	c0.06,1.915,0.182,3.83,0.223,5.746c-0.419-0.94-0.842-1.879-1.24-2.828c-0.976-2.325-1.776-4.705-2.697-7.05	c-0.821-2.09-1.594-3.707-2.368-5.816c-0.822-2.239-1.852-4.875-2.664-7.118c-1.079-2.978-2.453-5.839-3.23-8.919	C32.728,7.192,34.989,7.18,37.247,7.111z M18.322,7.166c-1.148,2.628-2.214,5.289-3.206,7.979c-0.831,2.255-1.772,4.451-2.657,6.684	c-1.567,3.953-3.154,7.901-4.793,11.825c-0.658,1.575-1.333,3.142-2.004,4.712c0.132-3.789,0.012-7.576,0.111-11.371	c0.125-4.769,0.406-9.538,0.274-14.31c-0.051-1.826-0.198-3.642-0.18-5.468c1.162-0.022,2.324-0.043,3.487-0.05	C12.344,7.164,15.333,7.165,18.322,7.166z M27.707,40.985c-0.404-1.232-0.885-2.431-1.448-3.601	c-0.51-1.061-1.022-2.108-1.376-3.234c-0.066-0.21-0.257-0.368-0.482-0.367c-1.131,0.007-2.267,0.107-3.399,0.135	c-0.882,0.021-1.766-0.026-2.648-0.071c0.386-0.838,0.842-1.645,1.2-2.495c0.521-1.239,1.127-2.435,1.697-3.652	c0.581-1.239,1.106-2.504,1.659-3.755c0.462-1.045,0.815-2.129,1.215-3.196c0.507,1.156,1.028,2.306,1.527,3.465	c0.847,1.967,1.645,3.937,2.59,5.86c0.949,1.932,1.83,3.864,2.581,5.882c0.621,1.669,1.202,3.353,1.838,5.017	C31.01,40.98,29.359,40.99,27.707,40.985z M33.724,40.968c-0.677-1.748-1.281-3.522-1.935-5.279	c-0.734-1.972-1.577-3.873-2.505-5.761c-0.938-1.909-1.754-3.85-2.589-5.806c-0.685-1.605-1.432-3.185-2.108-4.793	c-0.141-0.336-0.723-0.567-0.914-0.119c-0.593,1.391-1.013,2.845-1.625,4.229c-0.58,1.312-1.13,2.638-1.744,3.936	c-0.55,1.163-1.124,2.309-1.624,3.495c-0.473,1.123-1.101,2.175-1.553,3.308c-0.127,0.318,0.19,0.62,0.482,0.633	c1.129,0.049,2.262,0.135,3.393,0.107c1.016-0.025,2.033-0.101,3.049-0.123c0.725,2.119,1.848,4.07,2.602,6.182	c-4.419-0.02-8.839-0.074-13.257-0.155c-2.544-0.047-5.088-0.103-7.632-0.162c1.893-4.582,3.828-9.147,5.717-13.732	c0.572-1.388,1.173-2.768,1.693-4.177c0.721-1.953,1.633-3.829,2.34-5.788c1.194-3.305,2.461-6.582,3.882-9.797	c1.553,0,3.107,0,4.66,0c0.824,0,1.649,0.003,2.474,0.006c0.968,0.004,1.936,0.009,2.904,0.012c0.001,0.007-0.001,0.013,0.001,0.02	c0.682,2.834,1.903,5.454,2.928,8.17c0.869,2.303,1.876,5.031,2.743,7.335c0.789,2.095,1.475,3.729,2.333,5.796	c0.987,2.377,1.796,4.825,2.761,7.213c0.698,1.726,1.494,3.409,2.215,5.125C39.518,40.911,36.621,40.948,33.724,40.968z"/></svg>