<?xml version="1.0" encoding="UTF-8" standalone="no"?>
<!DOCTYPE svg PUBLIC "-//W3C//DTD SVG 1.1//EN" "http://www.w3.org/Graphics/SVG/1.1/DTD/svg11.dtd">
<svg width="100%" height="100%" viewBox="0 0 128 128" version="1.1" xmlns="http://www.w3.org/2000/svg" xmlns:xlink="http://www.w3.org/1999/xlink" xml:space="preserve" xmlns:serif="http://www.serif.com/" style="fill-rule:evenodd;clip-rule:evenodd;stroke-linejoin:round;stroke-miterlimit:2;">
    <g transform="matrix(0.707107,-0.707107,0.892164,0.892164,-26.5839,52.4906)">
        <rect x="20.687" y="19.879" width="74.343" height="65.131" style="fill:white;"/>
    </g>
    <path d="M124.737,58.378L69.621,3.264C66.449,0.09 61.301,0.09 58.124,3.264L46.68,14.71L61.198,29.228C64.573,28.089 68.441,28.853 71.13,31.542C73.833,34.248 74.591,38.149 73.424,41.535L87.416,55.528C90.801,54.361 94.708,55.115 97.41,57.823C101.19,61.6 101.19,67.723 97.41,71.502C95.597,73.316 93.134,74.337 90.569,74.337C88.003,74.337 85.54,73.316 83.727,71.502C80.973,68.746 80.14,64.584 81.622,60.981L68.574,47.933L68.572,82.274C69.519,82.74 70.383,83.358 71.131,84.102C74.909,87.879 74.909,94 71.131,97.785C67.352,101.562 61.227,101.562 57.452,97.785C53.674,94.001 53.674,87.88 57.452,84.102C58.357,83.195 59.434,82.478 60.619,81.992L60.619,47.333C59.433,46.848 58.356,46.13 57.452,45.222C54.59,42.362 53.901,38.162 55.369,34.646L41.056,20.333L3.264,58.123C0.11,61.278 0.11,66.468 3.264,69.623L58.381,124.737C61.555,127.911 66.701,127.911 69.88,124.737L124.738,69.879C127.891,66.723 127.891,61.533 124.737,58.378Z" style="fill:rgb(243,79,41);fill-rule:nonzero;"/>
</svg>
