<?xml version="1.0" encoding="utf-8"?>
<!-- Generator: Adobe Illustrator 27.2.0, SVG Export Plug-In . SVG Version: 6.00 Build 0)  -->
<svg version="1.1" id="Capa_1" xmlns="http://www.w3.org/2000/svg" xmlns:xlink="http://www.w3.org/1999/xlink" x="0px" y="0px"
	 viewBox="0 0 800 800" style="enable-background:new 0 0 800 800;" xml:space="preserve">
<style type="text/css">
	.st0{fill:#FFCA28;}
	.st1{fill:#FFFFFF;}
</style>
<rect x="50" y="50" class="st0" width="700" height="700"/>
<path class="st1" d="M475,632.2l51.5-34.1c4,12.7,29.6,42.8,61.9,42.8c32.3,0,47.3-17.6,47.3-29.3c0-31.9-33-43.1-48.8-48.5
	c-2.6-0.9-4.7-1.6-6.2-2.2c-0.7-0.3-1.9-0.8-3.3-1.3c-17.6-6.7-82.6-31.6-82.6-103.6c0-79.3,76.5-88.4,93.8-88.4
	c11.3,0,65.8,1.4,92.9,52.3l-50,34.9c-11-22.2-29.2-29.5-40.4-29.5c-27.7,0-33.5,20.3-33.5,29.5c0,25.9,30.1,37.6,55.5,47.4
	c6.6,2.6,13,5,18.4,7.6c27.7,13.1,68.5,34.5,68.5,101.9c0,33.8-28.3,88.4-99.6,88.4C504.6,700,479.2,642.5,475,632.2z"/>
<path class="st1" d="M225,639l53.7-34.1c4.2,12.7,20.6,36.1,44.3,36.1c23.7,0,35.9-24.4,35.9-36.1V375H425v229.9
	c1.1,31.7-16.5,95.1-94.1,95.1C259.5,700,229.8,657.6,225,639z"/>
</svg>
