<?xml version="1.0" encoding="utf-8"?>
<!-- Generator: Adobe Illustrator 27.2.0, SVG Export Plug-In . SVG Version: 6.00 Build 0)  -->
<svg version="1.1" id="Capa_1" xmlns="http://www.w3.org/2000/svg" xmlns:xlink="http://www.w3.org/1999/xlink" x="0px" y="0px"
	 viewBox="0 0 128 128" style="enable-background:new 0 0 128 128;" xml:space="preserve">
<style type="text/css">
	.st0{fill:#FFFFFF;}
	.st1{fill:url(#SVGID_1_);}
	.st2{opacity:0.444;fill:url(#SVGID_00000083811440851720547360000005530667647912454335_);enable-background:new    ;}
	.st3{fill:url(#SVGID_00000152236683917988255990000004749790894156035259_);}
</style>
<rect x="39.9" y="9.6" class="st0" width="19.5" height="17.4"/>
<linearGradient id="SVGID_1_" gradientUnits="userSpaceOnUse" x1="747.6552" y1="187.4891" x2="867.0535" y2="290.2156" gradientTransform="matrix(0.563 0 0 0.568 -420.33 -100.563)">
	<stop  offset="0" style="stop-color:#5A9FD4"/>
	<stop  offset="1" style="stop-color:#306998"/>
</linearGradient>
<path class="st1" d="M63.7,2.4c-5,0-9.8,0.5-14,1.2C37.3,5.8,35,10.4,35,18.9V30h29.4v3.7H24c-8.5,0-16,5.1-18.3,14.9
	C3,59.8,2.8,66.8,5.6,78.5c2.1,8.7,7.1,14.9,15.6,14.9h10.1V80c0-9.7,8.4-18.2,18.3-18.2H79c8.2,0,14.7-6.7,14.7-14.9v-28
	c0-8-6.7-13.9-14.7-15.3C74,2.7,68.7,2.4,63.7,2.4z M47.8,11.4c3,0,5.5,2.5,5.5,5.6c0,3.1-2.5,5.6-5.5,5.6c-3,0-5.5-2.5-5.5-5.6
	C42.3,13.9,44.8,11.4,47.8,11.4z"/>
<rect x="67.9" y="100.2" class="st0" width="19.5" height="17.4"/>
<radialGradient id="SVGID_00000022544008680880850430000005421454534495357835_" cx="-1091.8624" cy="1009.3331" r="31.8013" gradientTransform="matrix(0 -0.24 1.055 0 -1000.296 -132.224)" gradientUnits="userSpaceOnUse">
	<stop  offset="0" style="stop-color:#B8B8B8;stop-opacity:0.498"/>
	<stop  offset="1" style="stop-color:#7F7F7F;stop-opacity:0"/>
</radialGradient>
<path style="opacity:0.444;fill:url(#SVGID_00000022544008680880850430000005421454534495357835_);enable-background:new    ;" d="
	M104.1,130c0,4.2-17.6,7.6-39.3,7.6c-21.7,0-39.4-3.4-39.4-7.6c0-4.2,17.6-7.6,39.4-7.6C86.4,122.4,104.1,125.8,104.1,130z"/>
<linearGradient id="SVGID_00000002356003370174818910000004508399779925275582_" gradientUnits="userSpaceOnUse" x1="913.1473" y1="352.396" x2="870.5117" y2="292.0756" gradientTransform="matrix(0.563 0 0 0.568 -420.33 -100.563)">
	<stop  offset="0" style="stop-color:#FFD43B"/>
	<stop  offset="1" style="stop-color:#FFE873"/>
</linearGradient>
<path style="fill:url(#SVGID_00000002356003370174818910000004508399779925275582_);" d="M97.4,33.8v13c0,10.1-8.6,18.6-18.3,18.6
	H49.7c-8,0-14.7,6.9-14.7,14.9v28c0,8,6.9,12.6,14.7,14.9c9.3,2.7,18.2,3.2,29.3,0c7.4-2.1,14.7-6.4,14.7-14.9V97.1H64.4v-3.7h44
	c8.5,0,11.7-6,14.7-14.9c3.1-9.2,2.9-18,0-29.8c-2.1-8.5-6.1-14.9-14.7-14.9L97.4,33.8L97.4,33.8z M80.9,104.6c3,0,5.5,2.5,5.5,5.6
	c0,3.1-2.5,5.6-5.5,5.6c-3,0-5.5-2.5-5.5-5.6C75.4,107.1,77.8,104.6,80.9,104.6z"/>
</svg>
