<?xml version="1.0" encoding="iso-8859-1"?>
<!-- Uploaded to: SVG Repo, www.svgrepo.com, Generator: SVG Repo Mixer Tools -->
<svg height="800px" width="800px" version="1.1" id="Layer_1" xmlns="http://www.w3.org/2000/svg" xmlns:xlink="http://www.w3.org/1999/xlink" 
	 viewBox="0 0 392.663 392.663" xml:space="preserve">
<g>
	<path style="fill:#56ACE0;" d="M361.083,201.309H31.644c-5.301,0-9.632,4.331-9.632,9.632v48.549c0,5.301,4.331,9.632,9.632,9.632
		h329.568c5.301,0,9.632-4.331,9.632-9.632v-48.549C370.844,205.64,366.448,201.309,361.083,201.309z"/>
	<path style="fill:#56ACE0;" d="M31.644,89.729h329.568c5.301,0,9.632-4.331,9.632-9.632V31.547c0-5.301-4.331-9.632-9.632-9.632
		H31.644c-5.301,0-9.632,4.331-9.632,9.632v48.549C21.883,85.398,26.214,89.729,31.644,89.729z"/>
</g>
<g>
	<path style="fill:#FFC10D;" d="M361.083,111.58H31.644c-5.301,0-9.632,4.331-9.632,9.632v48.55c0,5.301,4.331,9.632,9.632,9.632
		h329.568c5.301,0,9.632-4.331,9.632-9.632v-48.55C370.844,115.911,366.448,111.58,361.083,111.58z"/>
	<path style="fill:#FFC10D;" d="M196.364,341.075c-8.21,0-14.804,6.659-14.804,14.869c0,8.21,6.659,14.869,14.804,14.869
		c8.21,0,14.869-6.659,14.869-14.869C211.232,347.733,204.574,341.075,196.364,341.075z"/>
</g>
<g>
	<path style="fill:#194F82;" d="M392.63,31.547C392.63,14.158,378.473,0,361.083,0H31.644C14.255,0,0.097,14.158,0.097,31.547
		v48.549c0,7.887,2.909,15.063,7.758,20.622c-4.784,5.56-7.758,12.735-7.758,20.622v48.549c0,7.887,2.909,15.063,7.758,20.622
		c-4.784,5.56-7.758,12.735-7.758,20.622v48.485c0,17.39,14.158,31.547,31.547,31.547h153.859v29.802
		c-11.442,3.556-20.493,12.606-24.113,24.113H10.958c-6.012,0-10.925,4.848-10.925,10.925s4.848,10.925,10.925,10.925h150.368
		c4.655,14.933,18.554,25.729,34.974,25.729c16.356,0,30.384-10.796,34.974-25.729H381.64c6.012,0,10.925-4.849,10.925-10.925
		s-4.848-10.925-10.925-10.925H231.337c-3.556-11.442-12.606-20.493-24.113-24.113v-29.802h153.859
		c17.39,0,31.547-14.158,31.547-31.547v-48.485c0-7.887-2.909-15.063-7.758-20.622c4.784-5.56,7.758-12.735,7.758-20.622v-48.549
		c0-7.887-2.909-15.063-7.758-20.622c4.784-5.56,7.758-12.735,7.758-20.622L392.63,31.547L392.63,31.547z M370.844,259.556
		c0,5.301-4.331,9.632-9.632,9.632H31.644c-5.301,0-9.632-4.331-9.632-9.632v-48.549c0-5.301,4.331-9.632,9.632-9.632h329.568
		c5.301,0,9.632,4.331,9.632,9.632V259.556z M196.364,370.747c-8.21,0-14.804-6.659-14.804-14.869s6.659-14.869,14.804-14.869
		c8.21,0,14.869,6.659,14.869,14.869S204.574,370.747,196.364,370.747z M21.883,31.547c0-5.301,4.331-9.632,9.632-9.632h329.568
		c5.301,0,9.632,4.331,9.632,9.632v48.549c0,5.301-4.331,9.632-9.632,9.632H31.644c-5.301,0-9.632-4.331-9.632-9.632V31.547
		C22.012,31.547,21.883,31.547,21.883,31.547z M370.844,169.762c0,5.301-4.331,9.632-9.632,9.632H31.644
		c-5.301,0-9.632-4.331-9.632-9.632v-48.55c0-5.301,4.331-9.632,9.632-9.632h329.568c5.301,0,9.632,4.331,9.632,9.632V169.762z"/>
	<path style="fill:#194F82;" d="M60.671,44.865h-8.469c-6.012,0-10.925,4.848-10.925,10.925s4.848,10.925,10.925,10.925h8.469
		c6.012,0,10.925-4.848,10.925-10.925S66.683,44.865,60.671,44.865z"/>
	<path style="fill:#194F82;" d="M117.172,44.865h-8.469c-6.012,0-10.925,4.848-10.925,10.925s4.848,10.925,10.925,10.925h8.469
		c6.012,0,10.925-4.848,10.925-10.925S123.184,44.865,117.172,44.865z"/>
	<path style="fill:#194F82;" d="M173.737,44.865h-8.469c-6.012,0-10.925,4.848-10.925,10.925s4.848,10.925,10.925,10.925h8.469
		c6.012,0,10.925-4.848,10.925-10.925S179.749,44.865,173.737,44.865z"/>
	<path style="fill:#194F82;" d="M230.238,44.865h-8.469c-6.012,0-10.925,4.848-10.925,10.925s4.848,10.925,10.925,10.925h8.469
		c6.012,0,10.925-4.848,10.925-10.925S236.251,44.865,230.238,44.865z"/>
	<path style="fill:#194F82;" d="M60.671,134.594h-8.469c-6.012,0-10.925,4.848-10.925,10.925c0,6.012,4.848,10.925,10.925,10.925
		h8.469c6.012,0,10.925-4.848,10.925-10.925S66.683,134.594,60.671,134.594z"/>
	<path style="fill:#194F82;" d="M117.172,134.594h-8.469c-6.012,0-10.925,4.848-10.925,10.925c0,6.012,4.848,10.925,10.925,10.925
		h8.469c6.012,0,10.925-4.848,10.925-10.925C128.032,139.442,123.184,134.594,117.172,134.594z"/>
	<path style="fill:#194F82;" d="M173.737,134.594h-8.469c-6.012,0-10.925,4.848-10.925,10.925c0,6.012,4.848,10.925,10.925,10.925
		h8.469c6.012,0,10.925-4.848,10.925-10.925C184.598,139.442,179.749,134.594,173.737,134.594z"/>
	<path style="fill:#194F82;" d="M230.238,134.594h-8.469c-6.012,0-10.925,4.848-10.925,10.925c0,6.012,4.848,10.925,10.925,10.925
		h8.469c6.012,0,10.925-4.848,10.925-10.925C241.099,139.442,236.251,134.594,230.238,134.594z"/>
	<path style="fill:#194F82;" d="M60.671,224.388h-8.469c-6.012,0-10.925,4.848-10.925,10.925c0,6.012,4.848,10.925,10.925,10.925
		h8.469c6.012,0,10.925-4.848,10.925-10.925C71.596,229.236,66.683,224.388,60.671,224.388z"/>
	<path style="fill:#194F82;" d="M117.172,224.388h-8.469c-6.012,0-10.925,4.848-10.925,10.925c0,6.012,4.848,10.925,10.925,10.925
		h8.469c6.012,0,10.925-4.848,10.925-10.925C128.162,229.236,123.184,224.388,117.172,224.388z"/>
	<path style="fill:#194F82;" d="M173.737,224.388h-8.469c-6.012,0-10.925,4.848-10.925,10.925c0,6.012,4.848,10.925,10.925,10.925
		h8.469c6.012,0,10.925-4.848,10.925-10.925C184.598,229.236,179.749,224.388,173.737,224.388z"/>
	<path style="fill:#194F82;" d="M230.238,224.388h-8.469c-6.012,0-10.925,4.848-10.925,10.925c0,6.012,4.848,10.925,10.925,10.925
		h8.469c6.012,0,10.925-4.848,10.925-10.925C241.099,229.236,236.251,224.388,230.238,224.388z"/>
</g>
</svg>