<?xml version="1.0" encoding="utf-8"?>
<!-- Generator: Adobe Illustrator 27.2.0, SVG Export Plug-In . SVG Version: 6.00 Build 0)  -->
<svg version="1.1" id="Capa_1" xmlns="http://www.w3.org/2000/svg" xmlns:xlink="http://www.w3.org/1999/xlink" x="0px" y="0px"
	 viewBox="0 0 12 12" style="enable-background:new 0 0 12 12;" xml:space="preserve">
<style type="text/css">
	.st0{fill:#F9F9F9;}
</style>
<rect x="1.1" y="1.9" class="st0" width="5.7" height="5.1"/>
<path d="M10.1,0.8H1.9C1,0.8,0.4,1.4,0.4,2.2v7.5c0,0.8,0.7,1.5,1.5,1.5h8.2c0.8,0,1.5-0.7,1.5-1.5V2.2C11.6,1.4,11,0.8,10.1,0.8z
	 M2.2,6C2,6,1.9,5.8,1.9,5.6c0-0.1,0.1-0.2,0.1-0.3l1.5-1.2L2,2.9C1.9,2.8,1.8,2.6,2,2.4s0.4-0.2,0.5-0.1l1.9,1.5
	C4.5,4,4.5,4.2,4.4,4.4c0,0,0,0-0.1,0.1L2.5,5.9C2.4,6,2.3,6,2.2,6z M6,6H4.5C4.3,6,4.1,5.8,4.1,5.6s0.2-0.4,0.4-0.4H6
	c0.2,0,0.4,0.2,0.4,0.4S6.2,6,6,6z"/>
</svg>
