<?xml version="1.0" encoding="utf-8"?>
<!-- Generator: Adobe Illustrator 27.2.0, SVG Export Plug-In . SVG Version: 6.00 Build 0)  -->
<svg version="1.1" id="Capa_1" xmlns="http://www.w3.org/2000/svg" xmlns:xlink="http://www.w3.org/1999/xlink" x="0px" y="0px"
	 viewBox="0 0 128 128" style="enable-background:new 0 0 128 128;" xml:space="preserve">
<style type="text/css">
	.st0{fill:#FFFFFF;}
	.st1{fill:#23719F;}
</style>
<rect x="10.5" y="8.8" class="st0" width="108" height="106.5"/>
<path class="st1" d="M127,16.1C127,7.8,120.2,1,111.9,1H16.1C7.8,1,1,7.8,1,16.1v95.7c0,8.4,6.8,15.1,15.1,15.1h95.7
	c8.4,0,15.1-6.8,15.1-15.1C127,111.9,127,16.1,127,16.1z M58,99.5c0,3.8-3.3,6.5-7.1,6.5H23.6c-3.8,0-6.6-2.7-6.6-6.5V23.2
	c0-3.8,2.8-7.2,6.6-7.2h27.3c3.8,0,7.1,3.4,7.1,7.2V99.5z M113,33.1V65c0,3.8-2.9,7-6.7,7H78.9c-3.8,0-6.9-3.2-6.9-7V22.9
	c0-3.8,3.1-6.9,6.9-6.9h27.3c3.8,0,6.7,3.1,6.7,6.9V33.1z"/>
</svg>
